<?xml version="1.0" encoding="UTF-8" standalone="no"?>
<!-- Created with Inkscape (http://www.inkscape.org/) -->

<svg
   width="512"
   height="512"
   viewBox="0 0 512 512"
   version="1.1"
   id="svg1"
   inkscape:version="1.3.2 (091e20ef0f, 2023-11-25)"
   sodipodi:docname="gridbox.svg"
   xmlns:inkscape="http://www.inkscape.org/namespaces/inkscape"
   xmlns:sodipodi="http://sodipodi.sourceforge.net/DTD/sodipodi-0.dtd"
   xmlns="http://www.w3.org/2000/svg"
   xmlns:svg="http://www.w3.org/2000/svg">
  <sodipodi:namedview
     id="namedview1"
     pagecolor="#505050"
     bordercolor="#ffffff"
     borderopacity="1"
     inkscape:showpageshadow="0"
     inkscape:pageopacity="0"
     inkscape:pagecheckerboard="1"
     inkscape:deskcolor="#505050"
     inkscape:document-units="px"
     inkscape:zoom="1.5175781"
     inkscape:cx="256"
     inkscape:cy="256"
     inkscape:window-width="1920"
     inkscape:window-height="981"
     inkscape:window-x="0"
     inkscape:window-y="0"
     inkscape:window-maximized="1"
     inkscape:current-layer="layer1" />
  <defs
     id="defs1" />
  <g
     inkscape:label="Layer 1"
     inkscape:groupmode="layer"
     id="layer1">
    <path
       id="path7"
       style="fill:#d0e0ff;fill-opacity:1;stroke:#1040a1;stroke-opacity:1;stroke-width:6;stroke-dasharray:none;fill-rule:nonzero"
       d="M 256 3 A 253 253 0 0 0 8.4882812 206.59766 A 50.679379 50.679379 0 0 1 19.203125 205.32031 A 50.679379 50.679379 0 0 1 69.882812 256 A 50.679379 50.679379 0 0 1 19.203125 306.67969 A 50.679379 50.679379 0 0 1 8.4882812 305.40234 A 253 253 0 0 0 256 509 A 253 253 0 0 0 509 256 A 253 253 0 0 0 256 3 z M 256 205.32031 A 50.679379 50.679379 0 0 1 306.67969 256 A 50.679379 50.679379 0 0 1 256 306.67969 A 50.679379 50.679379 0 0 1 205.32031 256 A 50.679379 50.679379 0 0 1 256 205.32031 z " />
  </g>
</svg>
