<?xml version="1.0" encoding="UTF-8" standalone="no"?>
<!-- Created with Inkscape (http://www.inkscape.org/) -->

<svg
   width="512"
   height="512"
   viewBox="0 0 512 512"
   version="1.1"
   id="svg1"
   xml:space="preserve"
   inkscape:version="1.3.2 (091e20ef0f, 2023-11-25)"
   sodipodi:docname="puck1.svg"
   xmlns:inkscape="http://www.inkscape.org/namespaces/inkscape"
   xmlns:sodipodi="http://sodipodi.sourceforge.net/DTD/sodipodi-0.dtd"
   xmlns="http://www.w3.org/2000/svg"
   xmlns:svg="http://www.w3.org/2000/svg"><sodipodi:namedview
     id="namedview1"
     pagecolor="#505050"
     bordercolor="#ffffff"
     borderopacity="1"
     inkscape:showpageshadow="0"
     inkscape:pageopacity="0"
     inkscape:pagecheckerboard="1"
     inkscape:deskcolor="#505050"
     inkscape:document-units="px"
     inkscape:zoom="1.7662515"
     inkscape:cx="315.64022"
     inkscape:cy="312.80937"
     inkscape:window-width="1920"
     inkscape:window-height="981"
     inkscape:window-x="0"
     inkscape:window-y="0"
     inkscape:window-maximized="1"
     inkscape:current-layer="layer1" /><defs
     id="defs1"><inkscape:path-effect
       effect="mirror_symmetry"
       start_point="253.24045,10.842352"
       end_point="253.24045,420.95133"
       center_point="253.24045,215.89684"
       id="path-effect2"
       is_visible="true"
       lpeversion="1.2"
       lpesatellites=""
       mode="free"
       discard_orig_path="false"
       fuse_paths="true"
       oposite_fuse="false"
       split_items="false"
       split_open="false"
       link_styles="false" /></defs><g
     inkscape:label="Layer 1"
     inkscape:groupmode="layer"
     id="layer1"><path
       style="fill:#d0e0ff;stroke:#1040a1;stroke-width:6"
       d="m 253.24023,27.371094 c -61.76321,1.140332 -84.71195,17.595402 -107.10742,32.992187 l -10.83398,52.816409 c -11.97966,21.4151 -17.79941,15.58517 -25.17774,16.64648 -7.47747,0.98642 -14.144567,3.88295 -18.435543,12.37695 l -11.50586,75.13282 c -5.336904,11.11544 -13.495726,18.65077 -29.86914,15.77343 -8.194752,0.7755 -14.345508,4.15444 -18.121094,10.55665 0.872609,80.39893 32.91413,138.47933 83.031247,183.61523 20.85337,10.4449 42.05484,16.36932 64.97461,0 18.03941,-11.61519 26.91232,-4.5232 37.04297,0 11.67271,7.05529 23.69917,9.54628 36.00195,9.71875 12.30279,-0.17247 24.32925,-2.66346 36.00196,-9.71875 10.13065,-4.5232 19.00355,-11.61519 37.04297,0 22.91977,16.36932 44.12124,10.4449 64.97461,0 50.11712,-45.1359 82.15864,-103.2163 83.03125,-183.61523 -3.77559,-6.40221 -9.92439,-9.78115 -18.11915,-10.55665 -16.37341,2.87734 -24.53418,-4.65799 -29.87109,-15.77343 l -11.50391,-75.13282 c -4.29097,-8.494 -10.95807,-11.39053 -18.43554,-12.37695 -7.37832,-1.06131 -13.20003,4.76862 -25.17969,-16.64648 L 360.34766,60.363281 C 337.95219,44.966496 315.00345,28.511426 253.24023,27.371094 Z"
       id="path1"
       sodipodi:nodetypes="csccccccccccc"
       inkscape:original-d="M 254.78137,27.346585 C 256,29.479233 254.63899,437.01052 254.63899,437.01052 c -12.79014,0 -25.28644,-2.40778 -37.40109,-9.73019 -10.13066,-4.5232 -19.00245,-11.6152 -37.04188,0 -22.9198,16.36934 -44.12156,10.44491 -64.97495,0 C 65.1039,382.14438 33.06194,324.06512 32.18933,243.66611 c 3.77559,-6.40221 9.9257,-9.78108 18.12046,-10.55658 16.37343,2.87734 24.5332,-4.65911 29.87011,-15.77456 l 11.50501,-75.13273 c 4.29098,-8.49401 10.958,-11.38992 18.43548,-12.37634 7.37833,-1.06131 13.19863,4.76923 25.1783,-16.64589 L 146.13343,60.363564 C 168.7142,44.839383 191.85692,28.239731 254.78137,27.346585 Z"
       inkscape:path-effect="#path-effect2"
       transform="matrix(1.1426026,0,0,1.1351729,-33.352955,-27.653684)" /></g></svg>
